<?xml version="1.0" standalone="no"?>
<!DOCTYPE svg PUBLIC "-//W3C//DTD SVG 20010904//EN"
 "http://www.w3.org/TR/2001/REC-SVG-20010904/DTD/svg10.dtd">
<svg version="1.0" xmlns="http://www.w3.org/2000/svg"
 width="500.000000pt" height="500.000000pt" viewBox="0 0 500.000000 500.000000"
 preserveAspectRatio="xMidYMid meet">
<metadata>
Created by potrace 1.11, written by Peter Selinger 2001-2013
</metadata>
<g transform="translate(0.000000,500.000000) scale(0.100000,-0.100000)"
fill="#000000" stroke="none">
<path d="M2308 4995 c-1 -1 -32 -6 -68 -9 -96 -10 -188 -26 -350 -61 -252 -55
-618 -226 -860 -403 -229 -167 -450 -397 -607 -632 -48 -71 -122 -196 -148
-250 -130 -263 -186 -434 -242 -740 -19 -109 -25 -176 -28 -350 -4 -281 15
-440 84 -710 38 -149 113 -339 198 -500 124 -237 253 -410 448 -606 268 -269
548 -449 910 -582 170 -63 324 -102 505 -127 25 -4 56 -9 70 -12 43 -9 462
-11 525 -3 33 5 85 12 115 15 30 4 57 8 60 10 3 2 26 6 50 10 79 11 281 67
389 106 105 40 314 133 341 154 8 7 42 26 75 45 209 114 475 342 655 562 201
244 340 496 440 797 96 291 129 505 125 821 -2 118 -5 226 -8 240 -2 14 -8 52
-12 85 -4 33 -9 62 -10 65 -2 3 -6 26 -10 50 -23 166 -120 447 -225 655 -129
256 -262 439 -469 645 -208 206 -406 348 -666 475 -256 125 -534 207 -821 241
-52 6 -460 15 -466 9z"/>
</g>
</svg>
